# xmcd CD database file
#
# Track frame offsets:
#	150
#	9238
#	26130
#	37378
#	50408
#	62185
#	73760
#	90798
#	111880
#	131425
#	136278
#	159490
#	180140
#	191895
#	206338
#	220338
#	263200
#	294250
#	318895
#
# Disc length: 4285 seconds
#
# Revision: 1
# Processed by: cddbd v1.5.2PL0 Copyright (c) Steve Scherf et al.
# Submitted via: CDex 1.51
#
DISCID=0e10bb13
DTITLE=Duke Ellington - 2 Great Concerts (1952-1965)
DYEAR=1987
DGENRE=Jazz
TTITLE0=Take The A Train
TTITLE1=Caravan
TTITLE2=Do Nothing 'till You Hear
TTITLE3=Fancy Dance
TTITLE4=The Hawk Talks
TTITLE5=Swamp Drum
TTITLE6=Mainstem
TTITLE7=Tattooed Bride
TTITLE8=Threesome
TTITLE9=Take The A Train
TTITLE10=Satin Doll - Sophisticated Lady
TTITLE11=Meow, Shorted Encore
TTITLE12=I Got It Bad And That Ain't Good
TTITLE13=Harmony In Harlem
TTITLE14=Things Ain't What They Used To Be
TTITLE15=Perdido
TTITLE16=The New Concerto For Cootie
TTITLE17=Carolina Shout - Rockin' In Rhythm
TTITLE18=Take The A Train
EXTD=YEAR: 1987
EXTT0=
EXTT1=
EXTT2=
EXTT3=
EXTT4=
EXTT5=
EXTT6=
EXTT7=
EXTT8=
EXTT9=
EXTT10=
EXTT11=
EXTT12=
EXTT13=
EXTT14=
EXTT15=
EXTT16=
EXTT17=
EXTT18=
PLAYORDER=
